<?xml version="1.0" encoding="UTF-8" standalone="no"?>
<!-- Created with Inkscape (http://www.inkscape.org/) -->

<svg
   xmlns:dc="http://purl.org/dc/elements/1.1/"
   xmlns:cc="http://creativecommons.org/ns#"
   xmlns:rdf="http://www.w3.org/1999/02/22-rdf-syntax-ns#"
   xmlns:svg="http://www.w3.org/2000/svg"
   xmlns="http://www.w3.org/2000/svg"
   xmlns:sodipodi="http://sodipodi.sourceforge.net/DTD/sodipodi-0.dtd"
   xmlns:inkscape="http://www.inkscape.org/namespaces/inkscape"
   width="137.59645mm"
   height="136.79539mm"
   viewBox="0 0 137.59645 136.79539"
   version="1.1"
   id="svg8"
   inkscape:version="0.92.4 (5da689c313, 2019-01-14)"
   sodipodi:docname="icon.svg">
  <defs
     id="defs2" />
  <sodipodi:namedview
     id="base"
     pagecolor="#ffffff"
     bordercolor="#666666"
     borderopacity="1.0"
     inkscape:pageopacity="0.0"
     inkscape:pageshadow="2"
     inkscape:zoom="0.49497475"
     inkscape:cx="196.67944"
     inkscape:cy="269.3342"
     inkscape:document-units="mm"
     inkscape:current-layer="layer1"
     showgrid="false"
     inkscape:window-width="1920"
     inkscape:window-height="1147"
     inkscape:window-x="-8"
     inkscape:window-y="-8"
     inkscape:window-maximized="1" />
  <metadata
     id="metadata5">
    <rdf:RDF>
      <cc:Work
         rdf:about="">
        <dc:format>image/svg+xml</dc:format>
        <dc:type
           rdf:resource="http://purl.org/dc/dcmitype/StillImage" />
        <dc:title></dc:title>
      </cc:Work>
    </rdf:RDF>
  </metadata>
  <g
     inkscape:label="Layer 1"
     inkscape:groupmode="layer"
     id="layer1"
     transform="translate(-42.824195,-36.495642)">
    <g
       id="g4654">
      <path
         sodipodi:nodetypes="cccccccccccccc"
         inkscape:connector-curvature="0"
         id="path4542"
         d="m 123.03125,41.866071 c 0,0 -17.95387,-6.425594 -47.058036,5.102677 0,0 -11.339285,2.834823 -16.81994,27.403276 0,0 -3.779762,10.016369 -5.480655,12.662202 0,0 -0.566964,3.023809 5.480655,6.614583 0,0 -0.566964,10.205361 -13.796131,23.812501 0,0 0.188988,5.85863 7.559524,6.80357 0,0 1.208276,5.06075 -0.742521,9.44941 0,0 2.632402,2.26785 3.388354,2.64583 l -1.521402,3.92289 c 0,0 4.066026,2.58099 5.112176,12.89705 0,0 -0.188988,10.96131 10.772321,7.55952 0,0 30.994045,-7.55952 34.017855,-11.90625 0,0 5.66965,-3.77976 4.15774,-11.15029"
         style="fill:none;fill-opacity:1;stroke:#000000;stroke-width:5;stroke-linecap:round;stroke-linejoin:miter;stroke-miterlimit:4;stroke-dasharray:none;stroke-opacity:0.99777982" />
      <path
         inkscape:connector-curvature="0"
         id="path4544"
         d="m 89.391369,156.01488 c 0,0 8.315476,6.04761 6.80357,14.74107"
         style="fill:#ff0000;stroke:#000000;stroke-width:5;stroke-linecap:round;stroke-linejoin:miter;stroke-miterlimit:4;stroke-dasharray:none;stroke-opacity:1" />
      <path
         inkscape:connector-curvature="0"
         id="path4546"
         d="m 144.57589,140.89583 c 0,0 0,20.41072 7.9375,27.21429"
         style="fill:none;stroke:#000000;stroke-width:5;stroke-linecap:round;stroke-linejoin:miter;stroke-miterlimit:4;stroke-dasharray:none;stroke-opacity:0.99777988" />
      <rect
         ry="4.9494586"
         y="119.72915"
         x="122.2753"
         height="13.040178"
         width="22.678572"
         id="rect4548"
         style="fill:none;fill-opacity:1;stroke:#000000;stroke-width:5;stroke-linecap:round;stroke-miterlimit:4;stroke-dasharray:none;stroke-opacity:0.99777988" />
      <path
         sodipodi:nodetypes="cssc"
         inkscape:connector-curvature="0"
         id="path4552"
         d="m 126.81101,133.14732 c 0,0 0.14966,4.33926 2.37075,6.73591 1.88365,2.03256 6.62547,3.63679 9.95596,-0.50593 0.99588,-1.23876 0.67784,-4.98575 1.65841,-7.17492"
         style="fill:none;stroke:#000000;stroke-width:5;stroke-linecap:butt;stroke-linejoin:miter;stroke-miterlimit:4;stroke-dasharray:none;stroke-opacity:0.99777988" />
      <path
         sodipodi:nodetypes="cccc"
         inkscape:connector-curvature="0"
         id="path4554"
         d="M 129.26786,118.78423 V 84.766369 c 0,0 -1.51191,-5.669643 -6.80358,-2.834823 0,0 -5.10267,2.267859 -0.56696,7.181549 0,0 1.79539,1.889881 3.68527,1.700893 h 9.16592"
         style="fill:none;stroke:#000000;stroke-width:5;stroke-linecap:butt;stroke-linejoin:miter;stroke-miterlimit:4;stroke-dasharray:none;stroke-opacity:1" />
      <path
         sodipodi:nodetypes="cccc"
         inkscape:connector-curvature="0"
         id="path4554-8"
         d="M 138.1375,118.82373 V 84.805867 c 0,0 1.51191,-5.669643 6.80358,-2.834823 0,0 5.10267,2.267859 0.56696,7.181549 0,0 -1.79539,1.889881 -3.68527,1.700893 h -9.16592"
         style="fill:none;stroke:#000000;stroke-width:5;stroke-linecap:butt;stroke-linejoin:miter;stroke-miterlimit:4;stroke-dasharray:none;stroke-opacity:0.99777988" />
      <path
         inkscape:connector-curvature="0"
         id="path4571"
         d="m 141.93006,118.59524 c 0,0 -0.75595,-6.89807 4.81919,-10.29985 0,0 13.32367,-5.29167 13.89063,-21.072176 0,0 0.75595,-19.087798 -11.1503,-25.607887 0,0 -7.55952,-5.858631 -16.72544,-5.858631"
         style="fill:none;stroke:#000000;stroke-width:5;stroke-linecap:butt;stroke-linejoin:miter;stroke-miterlimit:4;stroke-dasharray:none;stroke-opacity:0.99777988" />
      <path
         inkscape:connector-curvature="0"
         id="path4571-4"
         d="m 125.5616,118.52789 c 0,0 0.75595,-6.89807 -4.81919,-10.29985 0,0 -13.32367,-5.29167 -13.89063,-21.072174 0,0 -0.75595,-19.087798 11.1503,-25.607886 0,0 7.55952,-5.858632 16.72544,-5.858632"
         style="fill:none;stroke:#000000;stroke-width:5;stroke-linecap:butt;stroke-linejoin:miter;stroke-miterlimit:4;stroke-dasharray:none;stroke-opacity:0.99777988" />
      <path
         inkscape:connector-curvature="0"
         id="path4588"
         d="m 133.61458,39.031248 v 8.976934"
         style="fill:none;stroke:#000000;stroke-width:5;stroke-linecap:round;stroke-linejoin:miter;stroke-miterlimit:4;stroke-dasharray:none;stroke-opacity:1" />
      <path
         inkscape:connector-curvature="0"
         id="path4588-1"
         d="m 165.15818,52.037609 -6.39076,6.304246"
         style="fill:none;stroke:#000000;stroke-width:5;stroke-linecap:round;stroke-linejoin:miter;stroke-miterlimit:4;stroke-dasharray:none;stroke-opacity:1" />
      <path
         inkscape:connector-curvature="0"
         id="path4588-14"
         d="M 177.88504,83.443452 H 168.9081"
         style="fill:none;stroke:#000000;stroke-width:5;stroke-linecap:round;stroke-linejoin:miter;stroke-miterlimit:4;stroke-dasharray:none;stroke-opacity:1" />
      <path
         inkscape:connector-curvature="0"
         id="path4588-1-1"
         d="m 102.86468,52.125873 6.39076,6.304246"
         style="fill:none;stroke:#000000;stroke-width:5;stroke-linecap:round;stroke-linejoin:miter;stroke-miterlimit:4;stroke-dasharray:none;stroke-opacity:1" />
      <path
         inkscape:connector-curvature="0"
         id="path4588-14-0"
         d="m 90.13782,83.531716 h 8.97694"
         style="fill:none;stroke:#000000;stroke-width:5;stroke-linecap:round;stroke-linejoin:miter;stroke-miterlimit:4;stroke-dasharray:none;stroke-opacity:1" />
    </g>
  </g>
</svg>
